<?xml version="1.0" encoding="utf-8"?><svg height="44" viewBox="0 0 48 44" width="48" xmlns="http://www.w3.org/2000/svg" xmlns:xlink="http://www.w3.org/1999/xlink"><linearGradient id="a" x1="108.633%" x2="46.927%" y1="13.818%" y2="78.776%"><stop offset=".18" stop-color="#0052cc"/><stop offset="1" stop-color="#2684ff"/></linearGradient><g fill="none" fill-rule="evenodd"><path d="m0-2h48v48h-48z"/><g fill-rule="evenodd"><path d="m18.9761458 28.7739545h10.0151672l2.4173636-14.1133117h-15.0955471z"/><g fill-rule="nonzero"><path d="m1.5567365.18712606c-.45408458-.00561975-.8875185.18963051-1.18400306.53361334-.29648458.34398283-.42566196.8014769-.35287137 1.24972775l6.5243149 39.60665195c.1677531 1.0004913 1.02968394 1.7360836 2.0441067 1.7447391h31.29962273c.7613051.0094511 1.4149597-.5397112 1.536687-1.2912844l6.5245022-40.05242415c.0726733-.44822539-.0565843-.90564495-.3530967-1.24954583-.2965123-.34390087-.7299249-.53907717-1.1839651-.53316856zm27.4726142 28.62561564h-9.9900586l-2.7049889-14.1320495h15.115784z" fill="#2684ff"/><path d="m45.8345348 14.6608302h-14.412367l-2.4188626 14.1208067h-9.9820013l-11.78645159 13.9902044c.37358076.3229884.84985839.5025804 1.3436877.5069252h31.28238379c.7607609.009546 1.4140222-.5391425 1.5357503-1.2901653z" fill="url(#a)"/></g></g></g></svg>