<?xml version="1.0" encoding="utf-8"?><svg height="64" viewBox="0 0 64 64" width="64" xmlns="http://www.w3.org/2000/svg"><g style="fill:none;stroke-linecap:round;stroke-linejoin:round;stroke:#000ee6;stroke-width:1.5;fill-rule:nonzero"><path d="m47.5879222 5.35519126h-7.0403022c-1.7274892-.00582339-3.2148776 1.2937279-3.5426916 3.09531682-.3278139 1.80158892.5965555 3.59625872 2.2016817 4.27458032l7.1207628 2.3502701c1.6026619.6809908 2.5245207 2.4746358 2.1970864 4.2748339s-1.8119573 3.1000192-3.5380964 3.097895h-8.4617727"/><path d="m42.557377 5.355191v-4.021858"/><path d="m42.557377 25.464481v-4.021858"/><path d="m56.4830601 1.33333333h2.0612022c2.2767411 0 4.1224044 1.84340264 4.1224044 4.11735503v22.64819754c0 2.2739524-1.8456633 4.117355-4.1224044 4.117355h-12.3672131l-12.3672131 12.3520651v-12.3520651h-8.2448088c-2.276741 0-4.1224043-1.8434026-4.1224043-4.117355v-22.64819754c0-2.27395239 1.8456633-4.11735503 4.1224043-4.11735503h4.1224044"/><circle cx="12.896175" cy="43.060109" r="8.546448"/><path d="m24.4590164 62.6666667c-1.7151603-4.8167144-6.3539749-8.0437159-11.5628415-8.0437159-5.20886664 0-9.84768127 3.2270015-11.56284157 8.0437159"/><path d="m58.9934061 39.5409836c1.6467965 3.7292949.1040488 8.0458171-3.5859626 10.0333235-3.6900114 1.9875065-8.3532097 1.0136184-10.8391375-2.2637053"/><path d="m62.6666667 62.6666667c-1.7151603-4.8167144-6.353975-8.0437159-11.5628416-8.0437159s-9.8476812 3.2270015-11.5628415 8.0437159"/></g></svg>