<?xml version="1.0" encoding="utf-8"?><svg height="64" viewBox="0 0 64 64" width="64" xmlns="http://www.w3.org/2000/svg"><g style="fill:none;stroke-linecap:round;stroke-linejoin:round;stroke:#000ee6;stroke-width:1.5;fill-rule:nonzero"><path d="m31.9896 41.777333v7.821334"/><path d="m48.528 61.3333333c-2.4773333-7.032-9.104-11.7346666-16.5386667-11.7346666-7.4333333 0-14.06 4.7026666-16.5386666 11.7346666z"/><path d="m43.692 2.66666667h9.744c2.152 0 3.8973333 1.75066666 3.8973333 3.912v9.77733333c0 14.04-11.3413333 25.4213333-25.3333333 25.4213333s-25.33333333-11.3813333-25.33333333-25.4213333v-9.77733333c0-2.16133334 1.74533333-3.912 3.89733333-3.912h9.744"/><path d="m33.3776 7.4272 3.2453333 6.4093333h5.5266667c.6226667-.0146666 1.1906667.3533334 1.432.9306667.24.576.104 1.2426667-.3426667 1.6773333l-5.076 5 2.812 6.4786667c.2546667.6093333.0933334 1.312-.4013333 1.748s-1.2106667.5053333-1.7786667.1733333l-6.7946666-3.8333333-6.7946667 3.8333333c-.568.332-1.284.2626667-1.7773333-.1733333-.4946667-.436-.656-1.1386667-.4026667-1.748l2.812-6.4786667-5.0746667-5.0106666c-.4466666-.4346667-.584-1.1-.3426666-1.6773334.24-.5773333.8093333-.9453333 1.4306666-.9306666h5.5266667l3.2466667-6.3986667c.2613333-.52133333.7946666-.84933333 1.376-.84933333.5826666 0 1.1146666.328 1.3773333.84933333z"/></g></svg>