<?xml version="1.0" encoding="utf-8"?><svg height="48" viewBox="0 0 48 48" width="48" xmlns="http://www.w3.org/2000/svg"><g style="fill:none;stroke-linecap:round;stroke-linejoin:round;stroke:#000ee6;stroke-width:1.568182;fill-rule:nonzero"><path d="m12.019257 40.078782h13.525568"/><path d="m42.076075 40.0787824c0 3.3199845-2.6913792 6.0113637-6.0113637 6.0113637h-24.0454545c-3.31998446 0-6.01136364-2.6913792-6.01136364-6.0113637 0-3.3199844 2.69137918-6.0113636 6.01136364-6.0113636h24.0454545c3.3199845 0 6.0113637 2.6913792 6.0113637 6.0113636z"/><path d="m36.0647113 28.0560559c4.046303.0015986 7.5982084-2.6924065 8.687637-6.5892919s-.5504169-8.0423168-4.0109128-10.1393477c-3.4604959-2.09703091-7.8941782-1.63210543-10.8443832 1.1371654-1.0989228-7.1184202-7.5828781-12.12740631-14.7481061-11.39320898-7.1652279.73419733-12.49859945 6.95406604-12.13104111 14.14742668.36755835 7.1933607 6.30712934 12.8372565 13.50987441 12.8372565z"/></g></svg>