<?xml version="1.0" encoding="utf-8"?><svg height="48" viewBox="0 0 48 48" width="48" xmlns="http://www.w3.org/2000/svg"><g style="fill:none;stroke-linecap:round;stroke-linejoin:round;stroke:#000ee6;stroke-width:1.5;fill-rule:nonzero"><path d="m7 47-4.028-5.24375c-1.27653434-1.6622636-1.972-3.7275686-1.972-5.85625v-10.775c0-1.7258898 1.34314575-3.125 3-3.125 1.65685425 0 3 1.3991102 3 3.125v7.8125"/><path d="m16 46v-6.2485824c.0016323-1.7731793-.5253211-3.5069054-1.5140431-4.9813316l-2.2840593-3.415201c-.3938279-.6542445-1.0394262-1.119261-1.7864852-1.2867832-.74705891-.1675223-1.53039047-.0229322-2.16761745.4001062-1.17812589.7820226-1.58500935 2.3170648-.94802461 3.5765961l2.70007009 4.4831985"/><path d="m41 47 4.028-5.24375c1.2765343-1.6622636 1.972-3.7275686 1.972-5.85625v-10.775c0-1.7258898-1.3431458-3.125-3-3.125-1.6568542 0-3 1.3991102-3 3.125v7.8125"/><path d="m31 46v-6.2485824c-.0016323-1.7731793.5253211-3.5069054 1.5140431-4.9813316l2.2840593-3.415201c.3938279-.6542445 1.0394262-1.119261 1.7864852-1.2867832.7470589-.1675223 1.5303905-.0229322 2.1676175.4001062 1.1781258.7820226 1.5850093 2.3170648.9480246 3.5765961l-2.7000701 4.4831985"/><path d="m14 4-7 5.5 7 5.5"/><path d="m33 4 7 5.5-7 5.5"/><path d="m26 1-4 19"/></g></svg>