<?xml version="1.0" encoding="utf-8"?><svg height="64" viewBox="0 0 64 64" width="64" xmlns="http://www.w3.org/2000/svg"><g style="fill:none;stroke-linecap:round;stroke-linejoin:round;stroke:#000ee6;stroke-width:1.5;fill-rule:nonzero"><path d="m63 57-3.9792285-6.1425206v-14.4287397c0-5.4966627-10.1483679-11.3780919-14.0207715-14.4287397"/><path d="m51 39.9950029-10.5599591-7.9559402c-1.4734154-1.3854169-3.861564-1.3854169-5.3349794 0-1.4734153 1.3854169-1.4734153 3.6309354 0 5.0163523l10.2270657 10.8519786v6.8046016c0 3.2144938 4.8862969 8.2880048 4.8862969 8.2880048"/><path d="m36.6190476 59h-31.78057141c-2.12038095-.0027619-3.83847619-1.7013332-3.83847619-3.7976188v-50.40752092c0-2.09628559 1.71809524-3.79486028 3.83847619-3.79486028h36.31746031c2.120381-.00275855 3.8412698 1.69857469 3.8440635 3.79486028v30.72066492"/><path d="m26 9h8v8"/><path d="m34 9-25 23"/><path d="m14.5 43v8"/><path d="m22.5 36v14"/></g></svg>