<?xml version="1.0" encoding="utf-8"?><svg height="50" viewBox="0 0 50 50" width="50" xmlns="http://www.w3.org/2000/svg"><g fill="none" stroke="#000ee6" stroke-linecap="round" stroke-linejoin="round" stroke-width="1.5" transform="translate(1 1)"><path d="m12 17c2.7620871 0 5-2.2386091 5-5 0-2.76258993-2.2379129-5-5-5-2.76089038 0-5 2.23741007-5 5 0 2.7613909 2.23910962 5 5 5z"/><path d="m36 41c2.7620871 0 5-2.2374101 5-5 0-2.7613909-2.2379129-5-5-5-2.7608904 0-5 2.2386091-5 5 0 2.7625899 2.2391096 5 5 5z"/><path d="m0 4.57160475c0-2.52443348 2.04718917-4.57160475 4.57201477-4.57160475h38.85720143c2.5248257 0 4.5707838 2.04717127 4.5707838 4.57160475v38.85679055c0 2.5256667-2.0459581 4.5716047-4.5707838 4.5716047h-38.85720143c-2.5248256 0-4.57201477-2.045938-4.57201477-4.5716047z"/><path d="m23.5 0v48"/><path d="m0 23.5h48"/></g></svg>