<?xml version="1.0" encoding="utf-8"?><svg height="48" viewBox="0 0 48 48" width="48" xmlns="http://www.w3.org/2000/svg"><g fill="none"><path d="m43.6486876 0h-39.2973751c-2.4031875 0-4.3513125 1.948125-4.3513125 4.3513125v39.2973751c0 2.4031874 1.948125 4.3513124 4.3513125 4.3513124h39.2973751c2.4031874 0 4.3513124-1.948125 4.3513124-4.3513124v-39.2973751c0-2.4031875-1.948125-4.3513125-4.3513124-4.3513125" fill="#dc395f"/><path d="m16.0553595 15.1307981c1.5950574 0 2.9312694-1.2500036 2.9312694-2.8883141 0-1.6371861-1.336212-2.88700228-2.9312694-2.88700228s-2.9308946 1.24981618-2.9308946 2.88700228c0 1.6381231 1.3358372 2.8883141 2.9308946 2.8883141m-6.07771234 15.4648119c-.1722512.7327606-.25865796 1.5239924-.25865796 2.1694214 0 2.5432982 1.3793217 4.2316464 4.3105911 4.2316464 2.43101 0 4.4018712-1.4434074 5.8209287-3.7741862l-.8665041 3.476959h4.8273447l2.7590182-11.0643122c.6897546-2.8013572 2.0259666-4.2554468 4.0521206-4.2554468 1.59487 0 2.5862048.9917568 2.5862048 2.628943 0 .4743266-.0431096.9910074-.2155484 1.5515412l-1.4226188 5.0856592c-.2155482.7327608-.3013926 1.4658962-.3013926 2.1549912 0 2.4143622 1.4220564 4.1802968 4.3964356 4.1802968 2.5432824 0 4.5690616-1.6369988 5.6899128-5.5592364l-1.8964502-.732011c-.9484126 2.6276312-1.767496 3.1027076-2.414141 3.1027076-.6466448 0-.9915222-.430661-.9915222-1.2921702 0-.3879322.0865942-.8184056.2155484-1.336773l1.3796964-4.9546618c.34469-1.1634216.4742064-2.1950962.4742064-3.143 0-3.7065323-2.2417024-5.6409457-4.957236-5.6409457-2.5430952 0-5.1296748 2.2936723-6.4225896 4.7076597l.9480376-4.332846h-7.3706272l-1.0346319 3.8163528h3.4485853l-2.1236192 8.500774c-1.6675942 3.7065322-4.7308167 3.7666898-5.1152424 3.6806702-.6312754-.1424292-1.0350067-.3821226-1.0350067-1.202215 0-.4732022.0862193-1.1529268.3017676-1.9724568l3.2332245-12.8231252h-8.19008564l-1.03463184 3.8163528h3.40510088l-2.1980304 8.979411" fill="#fff"/></g></svg>