<?xml version="1.0" encoding="utf-8"?><svg height="48" viewBox="0 0 48 48" width="48" xmlns="http://www.w3.org/2000/svg" xmlns:xlink="http://www.w3.org/1999/xlink"><linearGradient id="a"><stop offset=".18" stop-color="#0052cc"/><stop offset="1" stop-color="#2684ff"/></linearGradient><linearGradient id="b" x1="98.030868%" x2="58.887706%" xlink:href="#a" y1=".1606%" y2="40.765525%"/><linearGradient id="c" x1="100.665247%" x2="55.40181%" xlink:href="#a" y1=".455032%" y2="44.726981%"/><g fill="none" fill-rule="nonzero"><path d="m45.8733334 0h-23.0533333c0 2.76001961 1.0964133 5.406996 3.048042 7.35862457 1.9516286 1.95162859 4.5986049 3.04804213 7.3586246 3.04804213h4.2466667v4.1c.0036774 5.7422374 4.6577625 10.3963226 10.3999999 10.4v-22.9066667c0-1.1045695-.8954305-2-1.9999999-2z" fill="#2684ff"/><path d="m34.4666666 11.4866667h-23.0533333c.0036774 5.7422374 4.6577625 10.3963226 10.4000001 10.4h4.2466667v4.1133334c.0073571 5.7422355 4.6644262 10.3933333 10.4066666 10.3933333v-22.9066667c0-1.1045695-.8954305-2-2.0000001-2z" fill="url(#b)"/><path d="m23.0533333 22.9666667h-23.0533333c0 5.7474433 4.65922337 10.4066666 10.4066667 10.4066666h4.26v4.1000001c.0036646 5.7370391 4.6496367 10.3889754 10.3866667 10.3999999v-22.9066666c0-1.1045696-.8954306-2-2.0000001-2z" fill="url(#c)"/></g></svg>