<?xml version="1.0" encoding="utf-8"?><svg height="48" viewBox="0 0 48 48" width="48" xmlns="http://www.w3.org/2000/svg"><g fill="none" stroke="#000ee6" stroke-linecap="round" stroke-linejoin="round" stroke-width="1.4375" transform="translate(2 1)"><path d="m22.410256 33.35v12.127273"/><path d="m22.410256 33.35-12.80586 12.127273"/><path d="m22.410256 33.35 12.805861 12.127273"/><path d="m0 3.03181818c0-1.67481818 1.43318926-3.03181818 3.2014652-3.03181818h38.4175824c1.768276 0 3.2014652 1.357 3.2014652 3.03181818v27.28636362c0 1.6748182-1.4331892 3.0318182-3.2014652 3.0318182h-38.4175824c-1.76827594 0-3.2014652-1.357-3.2014652-3.0318182z"/><path d="m1.769231 5.175h41.282051"/><path d="m14.211624 27.243082 15.967841-15.643136"/><path d="m31.075129 10.722077-3.135302.048091"/><path d="m31.075129 10.722077-.049089 3.071546"/><path d="m13.524376 12.605255 2.153519-2.109728"/><path d="m13.524376 10.495946 2.153519 2.109727"/><path d="m13.524376 20.235296 2.153519-2.109728"/><path d="m13.524376 18.125986 2.153519 2.109728"/><path d="m21.331043 12.605255 2.153518-2.109728"/><path d="m21.331043 10.495946 2.153518 2.109727"/><path d="m21.331043 27.865441 2.153518-2.109727"/><path d="m21.331043 25.756132 2.153518 2.109727"/><path d="m29.137815 20.235296 2.153519-2.109728"/><path d="m29.137815 18.125986 2.153519 2.109728"/><path d="m29.137815 27.865441 2.153519-2.109727"/><path d="m29.137815 25.756132 2.153519 2.109727"/></g></svg>