<?xml version="1.0" encoding="utf-8"?><svg height="48" viewBox="0 0 48 48" width="48" xmlns="http://www.w3.org/2000/svg"><g fill="none" fill-rule="nonzero"><path d="m17.5960784 0c-2.6529411.00192077-4.8 2.11092437-4.7980405 4.70972389-.0019595 2.59879952 2.1470601 4.70780312 4.8000013 4.70972389h4.8000014v-4.70780312c.0019594-2.59879952-2.1470602-4.70780312-4.8019622-4.71164466.0019608 0 .0019608 0 0 0m0 12.5618247h-12.7960784c-2.65294118.0019208-4.80196078 2.1109244-4.80000536 4.7097239-.00391621 2.5987995 2.1451034 4.7078031 4.79804458 4.7116447h12.79803918c2.6529412-.0019208 4.8019608-2.1109244 4.8000014-4.7097239.0019594-2.6007203-2.1470602-4.7097239-4.8000014-4.7116447z" fill="#36c5f0"/><path d="m47.9921582 17.2715486c.0019594-2.5987995-2.1470602-4.7078031-4.8000013-4.7097239-2.6529412.0019208-4.8019608 2.1109244-4.8000014 4.7097239v4.7116447h4.8000014c2.6529411-.0019208 4.8019607-2.1109244 4.8000013-4.7116447zm-12.7980392 0v-12.56182471c.0019594-2.59687875-2.1450994-4.70588235-4.7980406-4.70972389-2.6529411.00192077-4.8019608 2.11092437-4.8000053 4.70972389v12.56182471c-.0039162 2.5987995 2.1451034 4.7078031 4.7980445 4.7116447 2.6529412-.0019208 4.8019608-2.1109244 4.8000014-4.7116447z" fill="#2eb67d"/><path d="m30.3941176 47.1068427c2.6529412-.0019207 4.8019608-2.1109243 4.8000014-4.7097239.0019594-2.5987995-2.1470602-4.7078031-4.8000014-4.7097238h-4.8000013v4.7097238c-.0019594 2.5968788 2.1470602 4.7058824 4.8000013 4.7097239zm0-12.5637455h12.7980393c2.6529411-.0019207 4.8019607-2.1109243 4.8000053-4.7097239.0039162-2.5987995-2.1451034-4.7078031-4.7980446-4.7116446h-12.7980392c-2.6529411.0019208-4.8019608 2.1109244-4.8000013 4.7097239-.0019595 2.6007203 2.1450994 4.7097239 4.7980405 4.7116446z" fill="#ecb22e"/><path d="m-.00000134 29.8333733c-.00195944 2.5987996 2.14706016 4.7078032 4.80000134 4.7097239 2.65294118-.0019207 4.80196078-2.1109243 4.80000134-4.7097239v-4.7097238h-4.80000134c-2.65294118.0019207-4.80196078 2.1109243-4.80000134 4.7097238zm12.79803524 0v12.5618248c-.0039163 2.5987995 2.1451034 4.7078031 4.7980445 4.7116446 2.6529412-.0019207 4.8019608-2.1109243 4.8000054-4.7097239v-12.5599039c.0039162-2.5987995-2.1451034-4.7078031-4.7980446-4.7116447-2.6549019 0-4.8019608 2.1090036-4.8000053 4.7078031 0 0 0 .0019208 0 0" fill="#e01e5a"/></g></svg>