<?xml version="1.0" encoding="utf-8"?><svg height="48" viewBox="0 0 48 48" width="48" xmlns="http://www.w3.org/2000/svg"><g fill="none" stroke="#000ee6" stroke-linecap="round" stroke-linejoin="round" stroke-width="1.5" transform="translate(1 3)"><path d="m34 5.93809524v-3.93961905c-.0034042-1.10232785-.9044846-1.99510341-2.0170667-1.99847619h-26.96586663c-1.11258207.00337278-2.01366252.89614834-2.01706667 1.99847619v39.00304761c.00340415 1.1023279.9044846 1.9951034 2.01706667 1.9984762h26.96586663c1.1125821-.0033728 2.0136625-.8961483 2.0170667-1.9984762"/><path d="m0 9h5"/><path d="m0 21h5"/><path d="m0 33h5"/><path d="m36 13.7732121c-3.384056-2.1952202-7.6981745-2.3641141-11.2435916-.4401765-3.5454172 1.9239375-5.7541267 5.6324751-5.7564084 9.6653076v1.0004143c0 1.6575405 1.3441179 3.0012425 3.0021713 3.0012425s3.0021712-1.343702 3.0021713-3.0012425v-1.0004143c.0051319-1.5944899.769755-3.091167 2.0588936-4.0300887 1.2891387-.9389217 2.9485821-1.2077713 4.4683681-.7239289"/><path d="m34.6279765 23c4.2531698.9525447 3.1976085 5.5174938.1525616 5.539693h-5.6880734c-1.7079211 0-3.0924647 1.3553033-3.0924647 3.0271546s1.3845436 3.0271546 3.0924647 3.0271546h5.8138336c3.1728688 3.5760787 7.3126482 2.6114254 11.0937017.6740465"/><path d="m40 17 6 6"/><path d="m31.2881413 18.3352053 9.8624651-9.75438546c.7849303-.77442645 2.0567271-.77442645 2.8416575 0l1.4197999 1.40422507c.7839149.77449929.7839149 2.02988649 0 2.80438579l-16.4120638 16.2105693"/><path d="m26 33.3382582-10 4.6617418 3.5988324-8.1174184 2.8106755-2.8825816"/><path d="m38 11 4 4"/><path d="m34 15 4 4"/></g></svg>